<svg width="1080" height="1080" viewBox="0 0 1080 1080" fill="none" xmlns="http://www.w3.org/2000/svg">
<path fill-rule="evenodd" clip-rule="evenodd" d="M1040 1040H646.965C517.612 1040 407.745 1019.98 317.363 979.942C226.982 939.577 158.159 881.96 110.896 807.09C63.6318 731.895 40 642.214 40 538.047C40 434.531 63.4245 345.664 110.274 271.445C157.123 196.901 224.494 139.772 312.388 100.059C400.282 60.0195 506.003 40 629.552 40H1040V1040ZM657 932H885V148L639.502 147.422C540 147.422 456.874 163.21 390.124 194.785C323.375 226.035 273.209 270.957 239.627 329.551C206.045 387.819 189.254 457.318 189.254 538.047C189.254 619.427 206.252 689.577 240.249 748.496C274.245 807.415 325.862 852.826 395.099 884.727C464.337 916.628 551.693 932 657 932ZM479 400C479 466.274 425.274 520 359 520C292.726 520 239 466.274 239 400C239 333.726 292.726 280 359 280C425.274 280 479 333.726 479 400ZM322 540H397V682H396.808C396.806 682.15 396.804 682.299 396.803 682.449C396.801 682.666 396.8 682.883 396.8 683.1C396.8 719.965 426.021 749.85 462.066 749.85C498.112 749.85 527.333 719.965 527.333 683.1C527.333 682.649 527.328 682.199 527.32 681.751H527.334V540H615.334V540.111L784 712.611V540H872V840H784V839.878H783.987L615.334 667.391V683.25H615.193C615.286 685.438 615.332 687.638 615.332 689.85C615.332 772.693 549.668 839.85 468.666 839.85C387.665 839.85 322 772.693 322 689.85C322 687.217 322.066 684.6 322.197 682H322V540Z" fill="#5B7F2E"/>
</svg>
