<svg width="32" height="32" viewBox="0 0 32 32" fill="none" xmlns="http://www.w3.org/2000/svg">
<path d="M21.0759 30.0309C21.0759 30.0309 20.5369 30.5664 19.5797 31.0772C18.6948 31.5468 17.456 32 15.9517 32C14.4474 32 13.2167 31.5386 12.3479 31.069C11.4067 30.5582 10.8919 30.0309 10.8919 30.0309L16.3781 26.4305L21.0759 30.0309Z" fill="#474CC7"/>
<g style="mix-blend-mode:multiply" opacity="0.2">
<path d="M21.0759 30.0309C21.0759 30.0309 20.5369 30.5664 19.5797 31.0772C18.6948 31.5468 17.456 32 15.9517 32C14.4474 32 13.2167 31.5386 12.3479 31.069C11.4067 30.5582 10.8919 30.0309 10.8919 30.0309L16.3781 26.4305L21.0759 30.0309Z" fill="#42275F"/>
</g>
<g style="mix-blend-mode:multiply" opacity="0.2">
<path d="M21.0759 30.0309C21.0759 30.0309 20.5369 30.5664 19.5797 31.0772C18.4535 30.9619 16.8768 30.5582 16 29.2152C15.0668 30.6323 13.4419 30.9948 12.3479 31.069C11.4067 30.5582 10.8919 30.0309 10.8919 30.0309L16.3781 26.4305L21.0759 30.0309Z" fill="#1A1B47"/>
</g>
<path d="M11.3424 4.98455C11.3424 4.98455 6.79739 0.271885 0.313729 0C2.71896 5.30587 2.76722 11.7322 2.76722 11.7322L11.3424 4.98455Z" fill="#7E82F7"/>
<path d="M10.4817 6.72298C10.4817 6.72298 8.56714 8.87334 6.7411 10.5953C4.96332 12.276 3.26598 13.5531 3.51536 12.0289C4.0141 8.9475 3.40274 4.72093 2.06739 1.3512C3.65211 1.689 5.30118 2.59528 6.70892 3.57571C8.87282 5.06696 10.4817 6.72298 10.4817 6.72298Z" fill="#7E82F7"/>
<g style="mix-blend-mode:multiply" opacity="0.2">
<path d="M10.4817 6.72298C10.4817 6.72298 8.56714 8.87334 6.7411 10.5953C4.96332 12.276 3.26598 13.5531 3.51536 12.0289C4.0141 8.9475 3.40274 4.72093 2.06739 1.3512C3.65211 1.689 5.30118 2.59528 6.70892 3.57571C8.87282 5.06696 10.4817 6.72298 10.4817 6.72298Z" fill="#7E82F7"/>
</g>
<g style="mix-blend-mode:multiply" opacity="0.2">
<path d="M10.4817 6.72297C10.4817 6.72297 8.56715 8.87333 6.74111 10.5953C6.53196 10.3234 6.34694 10.0021 6.18605 9.61484C4.64156 5.97323 5.74362 4.30073 6.70893 3.5757C8.87283 5.06695 10.4817 6.72297 10.4817 6.72297Z" fill="#7E82F7"/>
</g>
<path d="M20.6496 4.98455C20.6496 4.98455 25.2026 0.271885 31.6863 0C29.281 5.30587 29.2328 11.7322 29.2328 11.7322L20.6496 4.98455Z" fill="#969AFF"/>
<path d="M21.5103 6.72298C21.5103 6.72298 23.4248 8.87334 25.2589 10.5953C27.0367 12.276 28.734 13.5531 28.4846 12.0289C27.9859 8.9475 28.5972 4.72093 29.9326 1.3512C28.3479 1.689 26.6988 2.59528 25.283 3.57571C23.1191 5.06696 21.5103 6.72298 21.5103 6.72298Z" fill="#969AFF"/>
<g style="mix-blend-mode:multiply" opacity="0.2">
<path d="M21.5103 6.72298C21.5103 6.72298 23.4248 8.87334 25.2589 10.5953C27.0367 12.276 28.734 13.5531 28.4846 12.0289C27.9859 8.9475 28.5972 4.72093 29.9326 1.3512C28.3479 1.689 26.6988 2.59528 25.283 3.57571C23.1191 5.06696 21.5103 6.72298 21.5103 6.72298Z" fill="#969AFF"/>
</g>
<g style="mix-blend-mode:multiply" opacity="0.2">
<path d="M21.5103 6.72297C21.5103 6.72297 23.4248 8.87333 25.2589 10.5953C25.46 10.3234 25.653 10.0021 25.8139 9.61484C27.3584 5.97323 26.2564 4.30073 25.283 3.5757C23.1191 5.06695 21.5103 6.72297 21.5103 6.72297Z" fill="#969AFF"/>
</g>
<path d="M3.93363 14.0721C3.93363 14.0721 2.90397 22.0309 11.093 20.1689C19.2821 18.3069 6.08145 9.46652 3.93363 14.0721Z" fill="#969AFF"/>
<path d="M20.7461 20.2513C20.7461 20.2513 33.3112 24.1318 29.1925 14.484C25.0739 4.83625 16.0563 17.9938 20.7461 20.2513Z" fill="#969AFF"/>
<path fill-rule="evenodd" clip-rule="evenodd" d="M32 17.3676C32 19.2049 31.3725 21.0751 29.9326 22.9619C26.2242 27.8228 22.5158 30.2533 19.9899 30.3357C17.4721 30.4099 16 27.518 16 27.518C16 27.518 15.9839 27.5509 15.9598 27.6004C15.7024 28.0618 14.2785 30.4016 12.0101 30.3357C9.48416 30.2533 5.77576 27.8228 2.06737 22.9619C1.48014 22.1956 1.02966 21.4377 0.699848 20.6714C0.225237 19.5592 0 18.4552 0 17.3676C0 15.5551 0.611361 13.7837 1.63298 12.0782C2.26043 11.0484 3.03268 10.035 3.91754 9.05455C5.84816 6.92891 7.819 5.1081 9.83006 3.81459C10.8356 3.16372 11.8492 2.6529 12.8788 2.29863C13.9085 1.95259 14.9462 1.7631 16 1.7631C17.9789 1.7631 19.9095 2.43045 21.7999 3.57566C21.9206 3.64981 22.0493 3.7322 22.1699 3.80635V3.81459C23.1755 4.45723 24.1729 5.23993 25.1543 6.12149C25.2777 6.23134 25.401 6.34394 25.5244 6.45929L25.8944 6.80532C26.0124 6.91517 26.1304 7.03052 26.2484 7.15136L26.2645 7.1596C26.3824 7.28043 26.5031 7.40127 26.6264 7.52211C27.1145 8.01095 27.5998 8.52177 28.0825 9.05455C28.1951 9.17813 28.2996 9.30172 28.4042 9.4253C28.4579 9.48572 28.5115 9.54614 28.5651 9.60656C28.7796 9.85922 28.9834 10.1091 29.1765 10.3563C29.3695 10.6117 29.5626 10.8589 29.7396 11.1143C29.8415 11.2626 29.9407 11.4136 30.0372 11.5674C30.0533 11.5894 30.0694 11.6114 30.0855 11.6333C30.1766 11.7706 30.2651 11.9107 30.3509 12.0535C30.3509 12.059 30.3536 12.0673 30.359 12.0782C31.3886 13.7837 32 15.5551 32 17.3676ZM10.7873 18.9413C9.11413 13.2646 4.45651 14.8712 4.45651 14.8712C4.45651 14.8712 4.72197 21.2399 10.7873 18.9413ZM27.5354 14.8712C27.5354 14.8712 22.8859 13.2564 21.2127 18.9413C27.278 21.2399 27.5354 14.8712 27.5354 14.8712Z" fill="#474CC7"/>
<g style="mix-blend-mode:multiply" opacity="0.2">
<path d="M15.9598 27.6004C15.6943 28.0618 14.2785 30.4016 12.01 30.3357C9.48414 30.2533 5.77575 27.8228 2.06735 22.9619C1.48012 22.1957 1.02964 21.4377 0.699829 20.6715C2.22019 22.278 4.69782 24.5602 7.06283 25.2688C6.86976 22.2863 10.5701 19.8723 12.9271 19.9629C13.5787 19.9876 14.1337 20.2018 14.4635 20.655C15.1392 21.5777 15.5173 23.3326 15.7345 24.9969C15.8552 25.9526 15.9195 26.8754 15.9598 27.6004Z" fill="#313487"/>
</g>
<g style="mix-blend-mode:multiply" opacity="0.2">
<path d="M16.0402 27.6004C16.2976 28.0618 17.7215 30.4016 19.9899 30.3357C22.5158 30.2533 26.2242 27.8228 29.9326 22.9619C30.5199 22.1957 30.9623 21.4377 31.2921 20.6715C29.7717 22.278 27.2941 24.5602 24.9291 25.2605C25.1302 22.2863 21.4299 19.8723 19.0729 19.9629C18.4213 19.9876 17.8663 20.2018 17.5284 20.655C16.8527 21.5777 16.4746 23.3326 16.2655 24.9969C16.1448 25.9526 16.0804 26.8754 16.0402 27.6004Z" fill="#42275F"/>
</g>
<path d="M29.7395 11.1143C29.5572 10.8616 29.3695 10.609 29.1765 10.3563C28.978 10.1091 28.7742 9.85922 28.5651 9.60656C28.5115 9.54614 28.4578 9.48572 28.4042 9.4253C28.297 9.29897 28.187 9.17539 28.0744 9.05455C27.5917 8.52177 27.1091 8.01095 26.6264 7.52211C26.5031 7.40127 26.3824 7.28043 26.2644 7.1596C26.2591 7.1596 26.2537 7.15685 26.2484 7.15136C26.1304 7.03601 26.0124 6.92067 25.8944 6.80532C25.7711 6.68998 25.6477 6.57463 25.5244 6.45929C25.401 6.34394 25.2777 6.23134 25.1543 6.12149C24.1729 5.23993 23.1754 4.45723 22.1699 3.81459C22.0466 3.7322 21.9232 3.65256 21.7999 3.57566C19.9095 2.43045 17.9789 1.7631 16 1.7631C14.9462 1.7631 13.9004 1.95259 12.8788 2.29863C11.8492 2.6529 10.8356 3.16372 9.83005 3.81459C7.81899 5.1081 5.84815 6.92891 3.91753 9.05455C3.03266 10.035 2.26042 11.0484 1.63297 12.0782C2.89591 11.3697 5.44594 10.3563 8.48666 11.4438C10.9241 12.3172 12.2433 16.4778 12.9271 19.9629C13.458 22.6817 13.6108 26.8094 13.6108 26.8094C13.5626 27.5592 15.3886 28.7291 16 28.7291C16.6113 28.7209 18.4374 27.5592 18.3811 26.8094C18.3811 26.8094 18.5339 22.6817 19.0729 19.9629C19.7566 16.4778 21.0759 12.3172 23.5133 11.4438C26.554 10.3563 29.1041 11.3697 30.359 12.0782C30.1659 11.7542 29.9594 11.4329 29.7395 11.1143Z" fill="#1A1B47"/>
<g style="mix-blend-mode:soft-light">
<path d="M30.359 12.0782C29.1041 11.3697 26.554 10.3563 23.5133 11.4438C21.0759 12.3172 19.7566 16.4778 19.0729 19.9629C18.5339 22.6817 18.3811 26.8094 18.3811 26.8094C18.3811 26.8204 18.3838 26.8314 18.3891 26.8424C18.3891 27.5921 16.6033 28.7209 16 28.7291C15.3886 28.7291 13.5626 27.5592 13.6108 26.8094C13.6108 26.8094 13.458 22.6817 12.9271 19.9629C12.2433 16.4778 10.9241 12.3172 8.48666 11.4438C5.44594 10.3563 2.89591 11.3697 1.63297 12.0782C2.26042 11.0484 3.03266 10.035 3.91753 9.05455C5.84815 6.92891 7.81899 5.1081 9.83005 3.81459C9.86223 3.79262 9.8944 3.77065 9.92658 3.74868C10.8999 3.13076 11.8813 2.64466 12.8788 2.29863C13.9085 1.95259 14.9462 1.7631 16 1.7631C17.9789 1.7631 19.9095 2.43045 21.7999 3.57566C21.8884 3.63333 21.9849 3.69101 22.0734 3.74868C22.1056 3.77065 22.1377 3.79262 22.1699 3.81459C23.1754 4.45723 24.1729 5.23993 25.1543 6.12149C25.2777 6.23134 25.401 6.34394 25.5244 6.45929L25.8944 6.80532C26.0124 6.91517 26.1304 7.03052 26.2484 7.15136L26.2644 7.1596C26.3824 7.28043 26.5031 7.40127 26.6264 7.52211C27.1091 8.01095 27.5917 8.52177 28.0744 9.05455C28.187 9.17813 28.2996 9.30172 28.4042 9.4253C28.4578 9.48572 28.5115 9.54614 28.5651 9.60656C28.7742 9.85922 28.978 10.1091 29.1765 10.3563C29.3695 10.609 29.5572 10.8616 29.7395 11.1143C29.9594 11.4329 30.1659 11.7542 30.359 12.0782Z" fill="#474CC7"/>
</g>
<g style="mix-blend-mode:soft-light">
<path d="M22.0734 3.74868C16.8447 7.22551 16.0402 10.4716 16.0402 10.4716C16.0402 10.4716 15.1875 7.17607 9.92661 3.74868C10.9 3.13076 11.8814 2.64466 12.8788 2.29863C13.9085 1.95259 14.9462 1.7631 16 1.7631C17.9789 1.7631 19.9095 2.43045 21.7999 3.57566C21.8884 3.63333 21.9849 3.69101 22.0734 3.74868Z" fill="#969AFF"/>
</g>
</svg>
